<svg width="512" height="512" viewBox="0 0 512 512" fill="none" xmlns="http://www.w3.org/2000/svg">
  <rect width="512" height="512" rx="128" fill="black"/>
  <path d="M165.6 356.4C148.533 346.267 135.2 332.667 125.6 315.6C116 298.533 111.2 279.867 111.2 259.6C111.2 239.333 116 220.667 125.6 203.6C135.2 186.533 148.533 172.933 165.6 162.8C182.667 152.667 202.133 147.6 224 147.6C242.133 147.6 258.4 151.333 272.8 158.8C287.2 166.267 298.667 176.667 307.2 190L268.4 212.4C262.533 204.4 255.333 198.267 246.8 194C238.267 189.733 229.067 187.6 219.2 187.6C208.533 187.6 199.067 190 190.8 194.8C182.533 199.6 176.133 206.133 171.6 214.4C167.067 222.667 164.8 231.867 164.8 242V277.2C164.8 287.333 167.067 296.533 171.6 304.8C176.133 313.067 182.533 319.6 190.8 324.4C199.067 329.2 208.533 331.6 219.2 331.6C229.067 331.6 238.267 329.467 246.8 325.2C255.333 320.933 262.533 314.8 268.4 306.8L307.2 329.2C298.667 342.533 287.2 352.933 272.8 360.4C258.4 367.867 242.133 371.6 224 371.6C202.133 371.6 182.667 366.533 165.6 356.4ZM285.6 356.4C268.533 346.267 255.2 332.667 245.6 315.6C236 298.533 231.2 279.867 231.2 259.6C231.2 239.333 236 220.667 245.6 203.6C255.2 186.533 268.533 172.933 285.6 162.8C302.667 152.667 322.133 147.6 344 147.6C362.133 147.6 378.4 151.333 392.8 158.8C407.2 166.267 418.667 176.667 427.2 190L388.4 212.4C382.533 204.4 375.333 198.267 366.8 194C358.267 189.733 349.067 187.6 339.2 187.6C328.533 187.6 319.067 190 310.8 194.8C302.533 199.6 296.133 206.133 291.6 214.4C287.067 222.667 284.8 231.867 284.8 242V277.2C284.8 287.333 287.067 296.533 291.6 304.8C296.133 313.067 302.533 319.6 310.8 324.4C319.067 329.2 328.533 331.6 339.2 331.6C349.067 331.6 358.267 329.467 366.8 325.2C375.333 320.933 382.533 314.8 388.4 306.8L427.2 329.2C418.667 342.533 407.2 352.933 392.8 360.4C378.4 367.867 362.133 371.6 344 371.6C322.133 371.6 302.667 366.533 285.6 356.4ZM405.6 356.4C388.533 346.267 375.2 332.667 365.6 315.6C356 298.533 351.2 279.867 351.2 259.6C351.2 239.333 356 220.667 365.6 203.6C375.2 186.533 388.533 172.933 405.6 162.8C422.667 152.667 442.133 147.6 464 147.6C482.133 147.6 498.4 151.333 512.8 158.8V212.4C506.933 204.4 499.733 198.267 491.2 194C482.667 189.733 473.467 187.6 463.6 187.6C452.933 187.6 443.467 190 435.2 194.8C426.933 199.6 420.533 206.133 416 214.4C411.467 222.667 409.2 231.867 409.2 242V277.2C409.2 287.333 411.467 296.533 416 304.8C420.533 313.067 426.933 319.6 435.2 324.4C443.467 329.2 452.933 331.6 463.6 331.6C473.467 331.6 482.667 329.467 491.2 325.2C499.733 320.933 506.933 314.8 512.8 306.8V360.4C498.4 367.867 482.133 371.6 464 371.6C442.133 371.6 422.667 366.533 405.6 356.4Z" fill="white"/>
</svg>
